<?xml version="1.0" encoding="UTF-8" standalone="no"?>
<!-- Created with Inkscape (http://www.inkscape.org/) -->

<svg
   width="577.71698"
   height="170"
   viewBox="0 0 577.71698 170"
   version="1.1"
   id="svg1"
   inkscape:version="1.3.2 (091e20e, 2023-11-25)"
   sodipodi:docname="diracx-logo-full.svg"
   xmlns:inkscape="http://www.inkscape.org/namespaces/inkscape"
   xmlns:sodipodi="http://sodipodi.sourceforge.net/DTD/sodipodi-0.dtd"
   xmlns="http://www.w3.org/2000/svg"
   xmlns:svg="http://www.w3.org/2000/svg">
  <sodipodi:namedview
     id="namedview1"
     pagecolor="#ffffff"
     bordercolor="#000000"
     borderopacity="0.25"
     inkscape:showpageshadow="2"
     inkscape:pageopacity="0.0"
     inkscape:pagecheckerboard="0"
     inkscape:deskcolor="#d1d1d1"
     inkscape:document-units="mm"
     inkscape:zoom="1.908091"
     inkscape:cx="298.46584"
     inkscape:cy="63.676207"
     inkscape:window-width="1728"
     inkscape:window-height="1052"
     inkscape:window-x="0"
     inkscape:window-y="65"
     inkscape:window-maximized="0"
     inkscape:current-layer="layer1" />
  <defs
     id="defs1">
    <clipPath
       clipPathUnits="userSpaceOnUse"
       id="clipPath2">
      <path
         d="M 0,841.89 H 595.276 V 0 H 0 Z"
         transform="translate(-230.34171,-690.82181)"
         id="path2" />
    </clipPath>
    <clipPath
       clipPathUnits="userSpaceOnUse"
       id="clipPath4">
      <path
         d="M 0,841.89 H 595.276 V 0 H 0 Z"
         transform="translate(-243.84621,-683.07701)"
         id="path4" />
    </clipPath>
    <clipPath
       clipPathUnits="userSpaceOnUse"
       id="clipPath6">
      <path
         d="M 0,841.89 H 595.276 V 0 H 0 Z"
         transform="translate(-245.17941,-680.78672)"
         id="path6" />
    </clipPath>
    <clipPath
       clipPathUnits="userSpaceOnUse"
       id="clipPath8">
      <path
         d="M 0,841.89 H 595.276 V 0 H 0 Z"
         transform="translate(-242.38561,-661.02311)"
         id="path8" />
    </clipPath>
    <clipPath
       clipPathUnits="userSpaceOnUse"
       id="clipPath10">
      <path
         d="M 0,841.89 H 595.276 V 0 H 0 Z"
         transform="translate(-225.5752,-653.60951)"
         id="path10" />
    </clipPath>
    <clipPath
       clipPathUnits="userSpaceOnUse"
       id="clipPath12">
      <path
         d="M 0,841.89 H 595.276 V 0 H 0 Z"
         transform="translate(-210.92941,-664.91651)"
         id="path12" />
    </clipPath>
    <clipPath
       clipPathUnits="userSpaceOnUse"
       id="clipPath14">
      <path
         d="M 0,841.89 H 595.276 V 0 H 0 Z"
         transform="translate(-289.13871,-649.43291)"
         id="path14" />
    </clipPath>
    <clipPath
       clipPathUnits="userSpaceOnUse"
       id="clipPath16">
      <path
         d="M 0,841.89 H 595.276 V 0 H 0 Z"
         transform="translate(-295.91161,-649.43291)"
         id="path16" />
    </clipPath>
    <clipPath
       clipPathUnits="userSpaceOnUse"
       id="clipPath18">
      <path
         d="M 0,841.89 H 595.276 V 0 H 0 Z"
         transform="translate(-298.71081,-649.43291)"
         id="path18" />
    </clipPath>
    <clipPath
       clipPathUnits="userSpaceOnUse"
       id="clipPath20">
      <path
         d="M 0,841.89 H 595.276 V 0 H 0 Z"
         id="path20" />
    </clipPath>
    <clipPath
       clipPathUnits="userSpaceOnUse"
       id="clipPath22">
      <path
         d="M 0,841.89 H 595.276 V 0 H 0 Z"
         transform="translate(-313.55651,-649.43291)"
         id="path22" />
    </clipPath>
    <clipPath
       clipPathUnits="userSpaceOnUse"
       id="clipPath24">
      <path
         d="M 0,841.89 H 595.276 V 0 H 0 Z"
         transform="translate(-317.33811,-649.43291)"
         id="path24" />
    </clipPath>
    <clipPath
       clipPathUnits="userSpaceOnUse"
       id="clipPath26">
      <path
         d="M 0,841.89 H 595.276 V 0 H 0 Z"
         transform="translate(-321.08281,-649.43291)"
         id="path26" />
    </clipPath>
    <clipPath
       clipPathUnits="userSpaceOnUse"
       id="clipPath28">
      <path
         d="M 0,841.89 H 595.276 V 0 H 0 Z"
         transform="translate(-327.85591,-651.92932)"
         id="path28" />
    </clipPath>
    <clipPath
       clipPathUnits="userSpaceOnUse"
       id="clipPath30">
      <path
         d="M 0,841.89 H 595.276 V 0 H 0 Z"
         transform="translate(-334.88741,-649.43291)"
         id="path30" />
    </clipPath>
    <clipPath
       clipPathUnits="userSpaceOnUse"
       id="clipPath32">
      <path
         d="M 0,841.89 H 595.276 V 0 H 0 Z"
         transform="translate(-339.53311,-651.45671)"
         id="path32" />
    </clipPath>
    <clipPath
       clipPathUnits="userSpaceOnUse"
       id="clipPath34">
      <path
         d="M 0,841.89 H 595.276 V 0 H 0 Z"
         transform="translate(-345.67111,-651.92932)"
         id="path34" />
    </clipPath>
    <clipPath
       clipPathUnits="userSpaceOnUse"
       id="clipPath36">
      <path
         d="M 0,841.89 H 595.276 V 0 H 0 Z"
         transform="translate(-349.33441,-649.43291)"
         id="path36" />
    </clipPath>
    <clipPath
       clipPathUnits="userSpaceOnUse"
       id="clipPath38">
      <path
         d="M 0,841.89 H 595.276 V 0 H 0 Z"
         transform="translate(-259.4713,-663.87502)"
         id="path38" />
    </clipPath>
    <clipPath
       clipPathUnits="userSpaceOnUse"
       id="clipPath40">
      <path
         d="M 0,841.89 H 595.276 V 0 H 0 Z"
         id="path40" />
    </clipPath>
    <clipPath
       clipPathUnits="userSpaceOnUse"
       id="clipPath42">
      <path
         d="M 0,841.89 H 595.276 V 0 H 0 Z"
         transform="translate(-300.78511,-668.60152)"
         id="path42" />
    </clipPath>
    <clipPath
       clipPathUnits="userSpaceOnUse"
       id="clipPath44">
      <path
         d="M 0,841.89 H 595.276 V 0 H 0 Z"
         transform="translate(-332.68091,-659.85461)"
         id="path44" />
    </clipPath>
    <clipPath
       clipPathUnits="userSpaceOnUse"
       id="clipPath46">
      <path
         d="M 0,841.89 H 595.276 V 0 H 0 Z"
         transform="translate(-347.79571,-663.87401)"
         id="path46" />
    </clipPath>
    <clipPath
       clipPathUnits="userSpaceOnUse"
       id="clipPath48">
      <path
         d="M 0,841.89 H 595.276 V 0 H 0 Z"
         transform="translate(-362.66891,-684.94402)"
         id="path48" />
    </clipPath>
  </defs>
  <g
     inkscape:label="Layer 1"
     inkscape:groupmode="layer"
     id="layer1"
     transform="translate(287.99896,234.55318)">
    <g
       id="g1"
       transform="matrix(9.9305577,0,0,9.9305577,2581.9909,2104.6907)">
      <path
         id="path1"
         d="m 0,0 -0.055,0.091 c -0.794,1.31 -2.5,1.729 -3.809,0.935 l -14.31,-8.671 c 0.387,0.204 0.828,0.321 1.296,0.32 h 0.106 c 1.531,-0.002 2.772,-1.245 2.769,-2.777 l -0.002,-1.627 13.07,7.92 C 0.375,-3.015 0.793,-1.309 0,0"
         style="fill:#4e5558;fill-opacity:1;fill-rule:nonzero;stroke:none"
         transform="matrix(0.35277776,0,0,-0.35277776,-281.06602,-234.04945)"
         clip-path="url(#clipPath2)"
         inkscape:export-filename="diracx-logos/full-logo.svg"
         inkscape:export-xdpi="96"
         inkscape:export-ydpi="96" />
      <path
         id="path3"
         d="m 0,0 -14.275,8.627 c 0.067,-0.05 0.481,-0.4 0.689,-0.748 l 0.081,-0.133 c 0.794,-1.309 0.376,-3.015 -0.934,-3.808 L -15.922,3.039 -2.93,-4.835 C -1.619,-5.628 0.086,-5.21 0.88,-3.9 l 0.054,0.091 C 1.729,-2.499 1.31,-0.794 0,0"
         style="fill:#00afca;fill-opacity:1;fill-rule:nonzero;stroke:none"
         transform="matrix(0.35277776,0,0,-0.35277776,-276.30193,-231.31725)"
         clip-path="url(#clipPath4)" />
      <path
         id="path5"
         d="m 0,0 c 0.016,-0.517 -0.111,-1.043 -0.399,-1.519 l -0.054,-0.09 c -0.794,-1.311 -2.499,-1.729 -3.81,-0.936 l -1.389,0.842 -0.02,-15.284 c -0.001,-1.532 1.238,-2.775 2.77,-2.777 h 0.106 c 1.532,-0.002 2.775,1.238 2.778,2.77 L 0.003,-0.067 C 0.003,-0.044 0,-0.022 0,0"
         style="fill:#77b52c;fill-opacity:1;fill-rule:nonzero;stroke:none"
         transform="matrix(0.35277776,0,0,-0.35277776,-275.83161,-230.50929)"
         clip-path="url(#clipPath6)" />
      <path
         id="path7"
         d="m 0,0 h -0.106 c -1.532,0.002 -2.772,1.245 -2.77,2.777 l 0.002,1.627 -13.069,-7.92 c -1.31,-0.794 -1.729,-2.5 -0.935,-3.809 l 0.055,-0.091 c 0.794,-1.31 2.499,-1.729 3.809,-0.935 L 1.291,0.317 C 0.905,0.114 0.466,-0.001 0,0"
         style="fill:#4e5558;fill-opacity:1;fill-rule:nonzero;stroke:none"
         transform="matrix(0.35277776,0,0,-0.35277776,-276.8172,-223.53713)"
         clip-path="url(#clipPath8)" />
      <path
         id="path9"
         d="M 0,0 -0.055,0.091 C -0.848,1.4 -0.43,3.106 0.88,3.9 l 1.49,0.903 -12.987,7.869 c -1.31,0.794 -3.016,0.376 -3.81,-0.935 l -0.054,-0.091 c -0.794,-1.31 -0.376,-3.015 0.934,-3.808 L 0.93,-0.935 C 0.943,-0.942 0.956,-0.948 0.969,-0.955 0.583,-0.73 0.248,-0.408 0,0"
         style="fill:#00afca;fill-opacity:1;fill-rule:nonzero;stroke:none"
         transform="matrix(0.35277776,0,0,-0.35277776,-282.74753,-220.92177)"
         clip-path="url(#clipPath10)" />
      <path
         id="path11"
         d="m 0,0 0.225,0.43 c 0.794,1.311 2.499,1.729 3.81,0.935 L 5.399,0.539 5.418,15.803 C 5.42,17.335 4.18,18.578 2.649,18.58 H 2.543 C 1.011,18.582 -0.233,17.342 -0.234,15.811 L -0.24,-0.991 C -0.212,-0.965 -0.273,-0.635 0,0"
         style="fill:#77b52c;fill-opacity:1;fill-rule:nonzero;stroke:none"
         transform="matrix(0.35277776,0,0,-0.35277776,-287.91425,-224.91063)"
         clip-path="url(#clipPath12)" />
      <path
         id="path13"
         d="m 0,0 v 3.951 h -1.455 l 0.074,0.791 H 2.526 L 2.452,3.951 H 0.975 V 0 Z"
         style="fill:#77b52c;fill-opacity:1;fill-rule:nonzero;stroke:none"
         transform="matrix(0.35277776,0,0,-0.35277776,-260.32374,-219.44836)"
         clip-path="url(#clipPath14)" />
      <path
         id="path15"
         d="M 0,0 V 2.12 H -1.92 V 0 H -2.888 V 4.742 H -1.92 V 2.925 H 0 V 4.742 H 0.967 V 0 Z"
         style="fill:#77b52c;fill-opacity:1;fill-rule:nonzero;stroke:none"
         transform="matrix(0.35277776,0,0,-0.35277776,-257.93441,-219.44836)"
         clip-path="url(#clipPath16)" />
      <path
         id="path17"
         d="M 0,0 V 4.742 H 3.545 L 3.471,3.951 H 0.975 v -1.1 H 2.918 V 2.061 H 0.975 V 0.798 h 2.57 L 3.471,0 Z"
         style="fill:#77b52c;fill-opacity:1;fill-rule:nonzero;stroke:none"
         transform="matrix(0.35277776,0,0,-0.35277776,-256.94692,-219.44836)"
         clip-path="url(#clipPath18)" />
      <path
         id="path19"
         d="m 307.899,654.175 h 0.975 v -4.742 h -0.975 z"
         style="fill:#77b52c;fill-opacity:1;fill-rule:nonzero;stroke:none"
         transform="matrix(0.35277776,0,0,-0.35277776,-362.32545,9.6571307)"
         clip-path="url(#clipPath20)" />
      <path
         id="path21"
         d="M 0,0 -1.913,3.132 V 0 h -0.945 v 4.742 h 1.034 L 0.089,1.625 V 4.742 H 1.027 V 0 Z"
         style="fill:#77b52c;fill-opacity:1;fill-rule:nonzero;stroke:none"
         transform="matrix(0.35277776,0,0,-0.35277776,-251.70969,-219.44836)"
         clip-path="url(#clipPath22)" />
      <path
         id="path23"
         d="m 0,0 v 3.951 h -1.455 l 0.074,0.791 H 2.526 L 2.452,3.951 H 0.975 V 0 Z"
         style="fill:#77b52c;fill-opacity:1;fill-rule:nonzero;stroke:none"
         transform="matrix(0.35277776,0,0,-0.35277776,-250.37562,-219.44836)"
         clip-path="url(#clipPath24)" />
      <path
         id="path25"
         d="M 0,0 V 4.742 H 3.545 L 3.471,3.951 H 0.975 v -1.1 H 2.918 V 2.061 H 0.975 V 0.798 h 2.57 L 3.471,0 Z"
         style="fill:#77b52c;fill-opacity:1;fill-rule:nonzero;stroke:none"
         transform="matrix(0.35277776,0,0,-0.35277776,-249.05457,-219.44836)"
         clip-path="url(#clipPath26)" />
      <path
         id="path27"
         d="M 0,0 C 0.152,0 0.282,0.005 0.388,0.015 0.493,0.025 0.58,0.054 0.646,0.103 0.713,0.153 0.761,0.225 0.79,0.321 0.82,0.418 0.835,0.551 0.835,0.724 0.835,0.901 0.82,1.039 0.79,1.138 0.761,1.236 0.713,1.309 0.646,1.355 0.58,1.402 0.493,1.431 0.388,1.44 0.282,1.45 0.152,1.455 0,1.455 H -0.96 V 0 Z M 0.93,-2.496 -0.325,-0.79 H -0.96 v -1.706 h -0.975 v 4.741 h 1.92 C 0.335,2.245 0.628,2.227 0.864,2.19 1.1,2.153 1.29,2.081 1.433,1.972 1.576,1.864 1.678,1.71 1.739,1.51 1.801,1.311 1.832,1.049 1.832,0.724 1.832,0.463 1.813,0.244 1.776,0.067 1.739,-0.111 1.678,-0.256 1.592,-0.369 1.505,-0.482 1.392,-0.57 1.252,-0.632 1.112,-0.693 0.938,-0.736 0.731,-0.761 l 1.315,-1.735 z"
         style="fill:#77b52c;fill-opacity:1;fill-rule:nonzero;stroke:none"
         transform="matrix(0.35277776,0,0,-0.35277776,-246.66518,-220.32904)"
         clip-path="url(#clipPath28)" />
      <path
         id="path29"
         d="M 0,0 -0.79,3.56 -1.514,0 h -1.219 l -1.086,4.742 h 1.064 l 0.613,-3.929 h 0.044 l 0.68,3.929 H -0.17 L 0.591,0.813 H 0.635 L 1.167,4.742 H 2.245 L 1.219,0 Z"
         style="fill:#77b52c;fill-opacity:1;fill-rule:nonzero;stroke:none"
         transform="matrix(0.35277776,0,0,-0.35277776,-244.18462,-219.44836)"
         clip-path="url(#clipPath30)" />
      <path
         id="path31"
         d="M 0,0 H 1.064 L 0.687,1.234 0.554,1.979 H 0.51 L 0.377,1.234 Z M 1.071,2.718 2.748,-2.024 H 1.684 L 1.27,-0.687 H -0.214 L -0.62,-2.024 h -1.064 l 1.677,4.742 z"
         style="fill:#77b52c;fill-opacity:1;fill-rule:nonzero;stroke:none"
         transform="matrix(0.35277776,0,0,-0.35277776,-242.54572,-220.16231)"
         clip-path="url(#clipPath32)" />
      <path
         id="path33"
         d="M 0,0 C 0.152,0 0.282,0.005 0.388,0.015 0.493,0.025 0.58,0.054 0.646,0.103 0.713,0.153 0.761,0.225 0.79,0.321 0.82,0.418 0.835,0.551 0.835,0.724 0.835,0.901 0.82,1.039 0.79,1.138 0.761,1.236 0.713,1.309 0.646,1.355 0.58,1.402 0.493,1.431 0.388,1.44 0.282,1.45 0.152,1.455 0,1.455 H -0.96 V 0 Z M 0.93,-2.496 -0.325,-0.79 H -0.96 v -1.706 h -0.975 v 4.741 h 1.92 C 0.335,2.245 0.628,2.227 0.864,2.19 1.1,2.153 1.29,2.081 1.433,1.972 1.576,1.864 1.678,1.71 1.739,1.51 1.801,1.311 1.832,1.049 1.832,0.724 1.832,0.463 1.813,0.244 1.776,0.067 1.739,-0.111 1.678,-0.256 1.592,-0.369 1.505,-0.482 1.392,-0.57 1.252,-0.632 1.112,-0.693 0.938,-0.736 0.731,-0.761 l 1.315,-1.735 z"
         style="fill:#77b52c;fill-opacity:1;fill-rule:nonzero;stroke:none"
         transform="matrix(0.35277776,0,0,-0.35277776,-240.38037,-220.32904)"
         clip-path="url(#clipPath34)" />
      <path
         id="path35"
         d="M 0,0 V 4.742 H 3.545 L 3.471,3.951 H 0.975 v -1.1 H 2.918 V 2.061 H 0.975 V 0.798 h 2.57 L 3.471,0 Z"
         style="fill:#77b52c;fill-opacity:1;fill-rule:nonzero;stroke:none"
         transform="matrix(0.35277776,0,0,-0.35277776,-239.08804,-219.44836)"
         clip-path="url(#clipPath36)" />
      <path
         id="path37"
         d="m 0,0 c 1.314,0 2.425,0.08 3.331,0.242 0.905,0.161 1.631,0.521 2.178,1.079 0.545,0.558 0.935,1.377 1.172,2.457 0.235,1.079 0.353,2.524 0.353,4.336 0,1.885 -0.18,3.355 -0.539,4.41 -0.361,1.055 -0.856,1.83 -1.49,2.326 -0.632,0.497 -1.383,0.794 -2.251,0.894 -0.869,0.099 -1.812,0.149 -2.829,0.149 H -3.648 V 0 Z M -8.561,-4.02 V 19.875 H 0 c 1.811,0 3.461,-0.118 4.95,-0.353 1.489,-0.236 2.755,-0.764 3.796,-1.582 1.042,-0.819 1.849,-2.01 2.419,-3.573 0.571,-1.563 0.856,-3.661 0.856,-6.291 0,-2.655 -0.254,-4.782 -0.763,-6.383 C 10.75,0.093 10,-1.13 9.007,-1.972 8.014,-2.817 6.798,-3.369 5.36,-3.63 3.92,-3.89 2.258,-4.02 0.372,-4.02 Z"
         style="fill:#4e5558;fill-opacity:1;fill-rule:nonzero;stroke:none"
         transform="matrix(0.35277776,0,0,-0.35277776,-270.78974,-224.54322)"
         clip-path="url(#clipPath38)" />
      <path
         id="path39"
         d="m 276.555,683.75 h 4.912 v -23.896 h -4.912 z"
         style="fill:#4e5558;fill-opacity:1;fill-rule:nonzero;stroke:none"
         transform="matrix(0.35277776,0,0,-0.35277776,-362.32545,9.6571307)"
         clip-path="url(#clipPath40)" />
      <path
         id="path41"
         d="m 0,0 c 1.041,0.124 1.916,0.341 2.623,0.651 0.707,0.31 1.278,0.751 1.711,1.322 0.435,0.571 0.745,1.302 0.932,2.196 0.186,0.894 0.279,1.997 0.279,3.313 0,1.637 -0.155,2.959 -0.466,3.963 -0.31,1.005 -0.825,1.78 -1.544,2.327 -0.72,0.545 -1.674,0.912 -2.867,1.098 -1.19,0.186 -2.667,0.279 -4.428,0.279 h -9.677 V -8.747 h 4.913 v 19.914 h 4.839 c 0.768,0 1.419,-0.025 1.953,-0.075 0.533,-0.05 0.968,-0.193 1.304,-0.428 C -0.094,10.428 0.148,10.063 0.297,9.566 0.446,9.069 0.521,8.375 0.521,7.482 0.521,6.613 0.446,5.937 0.297,5.454 0.148,4.97 -0.094,4.603 -0.428,4.355 -0.764,4.107 -1.199,3.958 -1.732,3.909 -2.265,3.858 -4.493,3.834 -5.262,3.834 l 0.052,-3.68 6.214,-8.901 h 5.62 z"
         style="fill:#4e5558;fill-opacity:1;fill-rule:nonzero;stroke:none"
         transform="matrix(0.35277776,0,0,-0.35277776,-256.21515,-226.21062)"
         clip-path="url(#clipPath42)" />
      <path
         id="path43"
         d="m 0,0 -8.449,23.896 h -5.433 L -22.331,0 h 5.359 l 2.047,6.738 3.759,10.267 2.508,-6.917 h -2.565 l -1.342,-4.042 h 5.181 L -5.36,0 Z"
         style="fill:#4e5558;fill-opacity:1;fill-rule:nonzero;stroke:none"
         transform="matrix(0.35277776,0,0,-0.35277776,-244.96302,-223.12491)"
         clip-path="url(#clipPath44)" />
      <path
         id="path45"
         d="m 0,0 c -5.97,0 -8.528,2.521 -8.528,8.028 v 0.028 c 0,5.506 2.558,8.028 8.528,8.028 2.493,0 2.066,-0.015 5.035,-0.236 l 0.028,4.255 C 2.422,20.314 1.698,20.307 -0.302,20.314 -9.227,20.349 -13.69,16.228 -13.69,8.056 V 8.028 c 0,-8.173 4.463,-12.293 13.388,-12.259 2,0.008 2.724,0 5.365,0.212 L 5.035,0.235 C 2.066,0.014 2.493,0 0,0"
         style="fill:#4e5558;fill-opacity:1;fill-rule:nonzero;stroke:none"
         transform="matrix(0.35277776,0,0,-0.35277776,-239.63086,-224.54286)"
         clip-path="url(#clipPath46)" />
      <path
         id="path47"
         d="m 0,0 -0.394,1.042 c -0.288,0.737 -0.445,1.135 -0.47,1.195 l -0.61,1.36 c -0.432,0.974 -0.848,1.461 -1.246,1.461 -0.601,0 -1.076,-0.563 -1.423,-1.69 -0.254,0.093 -0.381,0.229 -0.381,0.407 0,0.525 0.305,1.126 0.915,1.804 0.608,0.678 1.154,1.017 1.637,1.017 0.947,0 1.93,-1.364 2.944,-4.092 L 1.235,1.83 1.527,2.3 c 1.803,2.864 3.324,4.296 4.561,4.296 0.322,0 0.699,-0.093 1.131,-0.28 L 5.681,4.702 C 5.475,4.762 5.331,4.791 5.247,4.791 4.315,4.791 3.205,3.72 1.915,1.576 L 1.546,0.96 1.836,0.178 c 1.115,-3.076 2.034,-4.613 2.756,-4.613 0.665,0 1.172,0.474 1.521,1.423 0.237,-0.153 0.356,-0.309 0.356,-0.47 0,-0.424 -0.339,-0.932 -1.017,-1.525 -0.678,-0.593 -1.262,-0.89 -1.754,-0.89 -0.983,0 -1.987,1.385 -3.012,4.156 l -0.356,0.94 -0.368,-0.648 c -1.729,-2.965 -3.381,-4.448 -4.957,-4.448 -0.593,0 -1.097,0.146 -1.512,0.441 l 1.474,1.44 c 0.254,-0.254 0.551,-0.381 0.89,-0.381 0.957,0 2.033,0.968 3.228,2.906 l 0.661,1.069 z"
         style="fill:#404040;fill-opacity:1;fill-rule:nonzero;stroke:none"
         transform="matrix(0.35277776,0,0,-0.35277776,-234.38392,-231.97589)"
         clip-path="url(#clipPath48)" />
    </g>
  </g>
</svg>
